<svg width="171" height="76" viewBox="0 0 171 76" fill="none" xmlns="http://www.w3.org/2000/svg">
<path d="M11.848 30V7.312H14.088V20.496L26.6 7.28H29.064L19.784 17.264L29.544 30H27.016L18.344 18.608L14.088 23.024V30H11.848ZM40.2825 15.248C38.8318 15.2907 37.5518 15.696 36.4425 16.464C35.3545 17.232 34.5865 18.288 34.1385 19.632V30H31.9625V13.328H34.0105V17.328C34.5865 16.1547 35.3438 15.2053 36.2825 14.48C37.2425 13.7547 38.2558 13.3493 39.3225 13.264C39.5358 13.2427 39.7172 13.232 39.8665 13.232C40.0372 13.232 40.1758 13.2427 40.2825 13.264V15.248ZM43.1813 30V13.328H45.3573V30H43.1813ZM43.1813 9.84V6.64H45.3573V9.84H43.1813ZM55.622 30.32C54.2567 30.32 52.9873 30.096 51.814 29.648C50.6407 29.2 49.6273 28.5173 48.774 27.6L49.67 26.064C50.6087 26.9387 51.5473 27.5787 52.486 27.984C53.446 28.368 54.4593 28.56 55.526 28.56C56.8273 28.56 57.8833 28.304 58.694 27.792C59.5047 27.2587 59.91 26.5013 59.91 25.52C59.91 24.8587 59.7073 24.3573 59.302 24.016C58.918 23.6533 58.3527 23.3653 57.606 23.152C56.8807 22.9173 56.006 22.672 54.982 22.416C53.83 22.096 52.8593 21.7653 52.07 21.424C51.302 21.0613 50.7153 20.6133 50.31 20.08C49.926 19.5253 49.734 18.8107 49.734 17.936C49.734 16.848 50.0007 15.952 50.534 15.248C51.0887 14.5227 51.8353 13.9787 52.774 13.616C53.734 13.232 54.8007 13.04 55.974 13.04C57.254 13.04 58.3847 13.2427 59.366 13.648C60.3473 14.0533 61.1473 14.6187 61.766 15.344L60.71 16.816C60.1127 16.1333 59.398 15.632 58.566 15.312C57.7553 14.9707 56.8487 14.8 55.846 14.8C55.1633 14.8 54.5127 14.896 53.894 15.088C53.2753 15.2587 52.7633 15.5573 52.358 15.984C51.974 16.3893 51.782 16.9547 51.782 17.68C51.782 18.2773 51.9313 18.7467 52.23 19.088C52.5287 19.408 52.9767 19.6853 53.574 19.92C54.1713 20.1333 54.9073 20.368 55.782 20.624C57.0407 20.9653 58.1393 21.3173 59.078 21.68C60.0167 22.0213 60.742 22.4693 61.254 23.024C61.766 23.5787 62.022 24.3573 62.022 25.36C62.022 26.9173 61.4353 28.1333 60.262 29.008C59.0887 29.8827 57.542 30.32 55.622 30.32ZM73.6188 29.2C73.4481 29.264 73.1814 29.3813 72.8188 29.552C72.4561 29.7227 72.0188 29.872 71.5068 30C70.9948 30.128 70.4401 30.192 69.8428 30.192C69.2241 30.192 68.6374 30.0747 68.0828 29.84C67.5494 29.6053 67.1228 29.2533 66.8028 28.784C66.4828 28.2933 66.3228 27.696 66.3228 26.992V15.056H64.0188V13.328H66.3228V7.696H68.4988V13.328H72.3388V15.056H68.4988V26.384C68.5414 26.9813 68.7548 27.4293 69.1388 27.728C69.5441 28.0267 70.0028 28.176 70.5148 28.176C71.1121 28.176 71.6561 28.08 72.1468 27.888C72.6374 27.6747 72.9361 27.5253 73.0428 27.44L73.6188 29.2ZM76.3375 30V13.328H78.5135V30H76.3375ZM76.3375 9.84V6.64H78.5135V9.84H76.3375ZM81.9623 25.2C81.9623 24.1547 82.2609 23.2587 82.8583 22.512C83.4556 21.744 84.2769 21.1573 85.3223 20.752C86.3889 20.3253 87.6156 20.112 89.0023 20.112C89.8129 20.112 90.6556 20.176 91.5303 20.304C92.4049 20.432 93.1836 20.624 93.8663 20.88V19.472C93.8663 18.064 93.4503 16.944 92.6183 16.112C91.7863 15.28 90.6343 14.864 89.1623 14.864C88.2663 14.864 87.3809 15.0347 86.5063 15.376C85.6529 15.696 84.7569 16.176 83.8183 16.816L82.9863 15.28C84.0743 14.5333 85.1409 13.9787 86.1863 13.616C87.2316 13.232 88.2983 13.04 89.3863 13.04C91.4343 13.04 93.0556 13.6267 94.2503 14.8C95.4449 15.9733 96.0423 17.5947 96.0423 19.664V27.376C96.0423 27.6747 96.1063 27.8987 96.2343 28.048C96.3623 28.176 96.5649 28.2507 96.8423 28.272V30C96.6076 30.0213 96.4049 30.0427 96.2343 30.064C96.0636 30.0853 95.9356 30.0853 95.8503 30.064C95.3169 30.0427 94.9116 29.872 94.6343 29.552C94.3569 29.232 94.2076 28.8907 94.1863 28.528L94.1543 27.312C93.4076 28.272 92.4369 29.0187 91.2423 29.552C90.0476 30.064 88.8316 30.32 87.5943 30.32C86.5276 30.32 85.5569 30.096 84.6823 29.648C83.8289 29.1787 83.1569 28.56 82.6663 27.792C82.1969 27.0027 81.9623 26.1387 81.9623 25.2ZM93.1303 26.48C93.3649 26.1813 93.5463 25.8933 93.6743 25.616C93.8023 25.3387 93.8663 25.0933 93.8663 24.88V22.448C93.1409 22.1707 92.3836 21.9573 91.5943 21.808C90.8263 21.6587 90.0476 21.584 89.2583 21.584C87.7009 21.584 86.4423 21.8933 85.4823 22.512C84.5223 23.1307 84.0423 23.9733 84.0423 25.04C84.0423 25.6587 84.2023 26.2453 84.5223 26.8C84.8423 27.3333 85.3116 27.7813 85.9303 28.144C86.5489 28.4853 87.2743 28.656 88.1063 28.656C89.1516 28.656 90.1223 28.4533 91.0183 28.048C91.9356 27.6427 92.6396 27.12 93.1303 26.48ZM114.76 30H112.584V20.688C112.584 18.7253 112.296 17.296 111.72 16.4C111.144 15.4827 110.237 15.024 109 15.024C108.146 15.024 107.304 15.2373 106.472 15.664C105.64 16.0693 104.904 16.6347 104.264 17.36C103.645 18.064 103.197 18.8747 102.92 19.792V30H100.744V13.328H102.728V17.104C103.176 16.2933 103.762 15.5893 104.488 14.992C105.213 14.3733 106.034 13.8933 106.952 13.552C107.869 13.2107 108.818 13.04 109.8 13.04C110.717 13.04 111.496 13.2107 112.136 13.552C112.776 13.8933 113.288 14.384 113.672 15.024C114.056 15.6427 114.333 16.4 114.504 17.296C114.674 18.1707 114.76 19.152 114.76 20.24V30ZM124.872 30.32C123.507 30.32 122.237 30.096 121.064 29.648C119.891 29.2 118.877 28.5173 118.024 27.6L118.92 26.064C119.859 26.9387 120.797 27.5787 121.736 27.984C122.696 28.368 123.709 28.56 124.776 28.56C126.077 28.56 127.133 28.304 127.944 27.792C128.755 27.2587 129.16 26.5013 129.16 25.52C129.16 24.8587 128.957 24.3573 128.552 24.016C128.168 23.6533 127.603 23.3653 126.856 23.152C126.131 22.9173 125.256 22.672 124.232 22.416C123.08 22.096 122.109 21.7653 121.32 21.424C120.552 21.0613 119.965 20.6133 119.56 20.08C119.176 19.5253 118.984 18.8107 118.984 17.936C118.984 16.848 119.251 15.952 119.784 15.248C120.339 14.5227 121.085 13.9787 122.024 13.616C122.984 13.232 124.051 13.04 125.224 13.04C126.504 13.04 127.635 13.2427 128.616 13.648C129.597 14.0533 130.397 14.6187 131.016 15.344L129.96 16.816C129.363 16.1333 128.648 15.632 127.816 15.312C127.005 14.9707 126.099 14.8 125.096 14.8C124.413 14.8 123.763 14.896 123.144 15.088C122.525 15.2587 122.013 15.5573 121.608 15.984C121.224 16.3893 121.032 16.9547 121.032 17.68C121.032 18.2773 121.181 18.7467 121.48 19.088C121.779 19.408 122.227 19.6853 122.824 19.92C123.421 20.1333 124.157 20.368 125.032 20.624C126.291 20.9653 127.389 21.3173 128.328 21.68C129.267 22.0213 129.992 22.4693 130.504 23.024C131.016 23.5787 131.272 24.3573 131.272 25.36C131.272 26.9173 130.685 28.1333 129.512 29.008C128.339 29.8827 126.792 30.32 124.872 30.32ZM142.069 30.32C140.874 30.32 139.765 30.096 138.741 29.648C137.717 29.1787 136.831 28.5493 136.085 27.76C135.338 26.9493 134.751 26.0213 134.325 24.976C133.919 23.9307 133.717 22.8107 133.717 21.616C133.717 20.0587 134.069 18.6293 134.773 17.328C135.498 16.0267 136.49 14.992 137.749 14.224C139.007 13.4347 140.437 13.04 142.037 13.04C143.679 13.04 145.109 13.4347 146.325 14.224C147.562 15.0133 148.533 16.0587 149.237 17.36C149.941 18.64 150.293 20.048 150.293 21.584C150.293 21.7547 150.293 21.9253 150.293 22.096C150.293 22.2453 150.282 22.3627 150.261 22.448H135.989C136.095 23.6427 136.426 24.7093 136.981 25.648C137.557 26.5653 138.293 27.3013 139.189 27.856C140.106 28.3893 141.098 28.656 142.165 28.656C143.253 28.656 144.277 28.3787 145.237 27.824C146.218 27.2693 146.901 26.544 147.285 25.648L149.173 26.16C148.831 26.9493 148.309 27.664 147.605 28.304C146.901 28.944 146.069 29.4453 145.109 29.808C144.17 30.1493 143.157 30.32 142.069 30.32ZM135.925 20.88H148.245C148.159 19.664 147.829 18.5973 147.253 17.68C146.698 16.7627 145.962 16.048 145.045 15.536C144.149 15.0027 143.157 14.736 142.069 14.736C140.981 14.736 139.989 15.0027 139.093 15.536C138.197 16.048 137.461 16.7733 136.885 17.712C136.33 18.6293 136.01 19.6853 135.925 20.88ZM167.666 30H165.49V20.688C165.49 18.7253 165.202 17.296 164.626 16.4C164.05 15.4827 163.143 15.024 161.906 15.024C161.053 15.024 160.21 15.2373 159.378 15.664C158.546 16.0693 157.81 16.6347 157.17 17.36C156.551 18.064 156.103 18.8747 155.826 19.792V30H153.65V13.328H155.634V17.104C156.082 16.2933 156.669 15.5893 157.394 14.992C158.119 14.3733 158.941 13.8933 159.858 13.552C160.775 13.2107 161.725 13.04 162.706 13.04C163.623 13.04 164.402 13.2107 165.042 13.552C165.682 13.8933 166.194 14.384 166.578 15.024C166.962 15.6427 167.239 16.4 167.41 17.296C167.581 18.1707 167.666 19.152 167.666 20.24V30Z" fill="white"/>
<path d="M21.096 64.16C19.304 64.16 17.7893 63.84 16.552 63.2C15.3147 62.56 14.3333 61.7067 13.608 60.64C12.8827 59.552 12.3493 58.3253 12.008 56.96C11.688 55.5947 11.528 54.1867 11.528 52.736V41.28H13.736V52.736C13.736 53.9093 13.8533 55.0613 14.088 56.192C14.344 57.3227 14.7493 58.336 15.304 59.232C15.8587 60.128 16.6053 60.8427 17.544 61.376C18.4827 61.888 19.656 62.144 21.064 62.144C22.5147 62.144 23.7093 61.8773 24.648 61.344C25.608 60.7893 26.3547 60.064 26.888 59.168C27.4427 58.272 27.8373 57.2693 28.072 56.16C28.3067 55.0293 28.424 53.888 28.424 52.736V41.28H30.664V52.736C30.664 54.2507 30.4933 55.7013 30.152 57.088C29.8107 58.4747 29.256 59.6907 28.488 60.736C27.7413 61.7813 26.76 62.6133 25.544 63.232C24.328 63.8507 22.8453 64.16 21.096 64.16ZM43.4313 63.2C43.2606 63.264 42.9939 63.3813 42.6313 63.552C42.2686 63.7227 41.8313 63.872 41.3193 64C40.8073 64.128 40.2526 64.192 39.6553 64.192C39.0366 64.192 38.4499 64.0747 37.8953 63.84C37.3619 63.6053 36.9353 63.2533 36.6153 62.784C36.2953 62.2933 36.1353 61.696 36.1353 60.992V49.056H33.8313V47.328H36.1353V41.696H38.3113V47.328H42.1513V49.056H38.3113V60.384C38.3539 60.9813 38.5673 61.4293 38.9513 61.728C39.3566 62.0267 39.8153 62.176 40.3273 62.176C40.9246 62.176 41.4686 62.08 41.9593 61.888C42.4499 61.6747 42.7486 61.5253 42.8553 61.44L43.4313 63.2ZM51.11 64L44.358 47.328H46.63L52.326 61.824L58.054 47.328H60.198L53.446 64H51.11ZM63.2125 64V47.328H65.3885V64H63.2125ZM63.2125 43.84V40.64H65.3885V43.84H63.2125ZM82.0853 64L75.9093 55.456L72.3573 58.784V64H70.1813V40.64H72.3573V56.448L81.7973 47.36H84.1973L77.3813 54.176L84.4533 64H82.0853ZM87.246 40.64H89.422V60.224C89.422 61.056 89.5713 61.6 89.87 61.856C90.1687 62.112 90.5313 62.24 90.958 62.24C91.342 62.24 91.726 62.1973 92.11 62.112C92.494 62.0267 92.8247 61.9413 93.102 61.856L93.486 63.616C93.0807 63.7867 92.5793 63.9253 91.982 64.032C91.406 64.1387 90.9047 64.192 90.478 64.192C89.4967 64.192 88.7073 63.904 88.11 63.328C87.534 62.752 87.246 61.9627 87.246 60.96V40.64ZM95.8688 64V47.328H98.0448V64H95.8688ZM95.8688 43.84V40.64H98.0448V43.84H95.8688ZM116.854 64H114.678V54.688C114.678 52.7253 114.39 51.296 113.814 50.4C113.238 49.4827 112.331 49.024 111.094 49.024C110.24 49.024 109.398 49.2373 108.566 49.664C107.734 50.0693 106.998 50.6347 106.358 51.36C105.739 52.064 105.291 52.8747 105.014 53.792V64H102.838V47.328H104.822V51.104C105.27 50.2933 105.856 49.5893 106.582 48.992C107.307 48.3733 108.128 47.8933 109.046 47.552C109.963 47.2107 110.912 47.04 111.894 47.04C112.811 47.04 113.59 47.2107 114.23 47.552C114.87 47.8933 115.382 48.384 115.766 49.024C116.15 49.6427 116.427 50.4 116.598 51.296C116.768 52.1707 116.854 53.152 116.854 54.24V64ZM128.182 64.224C127.051 64.224 126.006 63.9893 125.046 63.52C124.086 63.0507 123.254 62.4213 122.55 61.632C121.867 60.8213 121.334 59.904 120.95 58.88C120.566 57.856 120.374 56.8 120.374 55.712C120.374 54.5387 120.555 53.44 120.918 52.416C121.302 51.3707 121.835 50.4427 122.518 49.632C123.222 48.8213 124.043 48.192 124.982 47.744C125.92 47.2747 126.966 47.04 128.118 47.04C129.547 47.04 130.784 47.4027 131.83 48.128C132.896 48.8533 133.792 49.7493 134.518 50.816V47.328H136.47V64.064C136.47 65.6 136.096 66.8907 135.35 67.936C134.624 69.0027 133.632 69.8027 132.374 70.336C131.136 70.8693 129.782 71.136 128.31 71.136C126.411 71.136 124.875 70.7947 123.702 70.112C122.528 69.4293 121.568 68.512 120.822 67.36L122.166 66.304C122.827 67.3493 123.702 68.128 124.79 68.64C125.899 69.152 127.072 69.408 128.31 69.408C129.398 69.408 130.39 69.2053 131.286 68.8C132.203 68.416 132.928 67.8293 133.462 67.04C134.016 66.2507 134.294 65.2587 134.294 64.064V60.768C133.654 61.8133 132.779 62.656 131.67 63.296C130.56 63.9147 129.398 64.224 128.182 64.224ZM128.79 62.4C129.451 62.4 130.08 62.2827 130.678 62.048C131.296 61.8133 131.862 61.504 132.374 61.12C132.886 60.7147 133.312 60.2667 133.654 59.776C133.995 59.2853 134.208 58.784 134.294 58.272V53.12C133.974 52.3093 133.515 51.5947 132.918 50.976C132.32 50.336 131.638 49.8453 130.87 49.504C130.123 49.1413 129.344 48.96 128.534 48.96C127.595 48.96 126.752 49.1627 126.006 49.568C125.28 49.952 124.662 50.4747 124.15 51.136C123.659 51.776 123.275 52.5013 122.998 53.312C122.72 54.1227 122.582 54.9333 122.582 55.744C122.582 56.64 122.742 57.4933 123.062 58.304C123.382 59.0933 123.819 59.808 124.374 60.448C124.95 61.0667 125.611 61.5467 126.358 61.888C127.126 62.2293 127.936 62.4 128.79 62.4Z" fill="white"/>
<line x1="0.500002" y1="7" x2="0.499999" y2="64" stroke="#4BD3F0"/>
</svg>
